<?xml version="1.0" encoding="UTF-8" standalone="no"?>
<!DOCTYPE svg PUBLIC "-//W3C//DTD SVG 1.1//EN"
 "http://www.w3.org/Graphics/SVG/1.1/DTD/svg11.dtd">
<!-- Generated by graphviz version 2.40.1 (20161225.0304)
 -->
<!-- Title: dependencies Pages: 1 -->
<svg width="820pt" height="284pt"
 viewBox="0.00 0.00 820.00 284.00" xmlns="http://www.w3.org/2000/svg" xmlns:xlink="http://www.w3.org/1999/xlink">
<g id="graph0" class="graph" transform="scale(1 1) rotate(0) translate(4 280)">
<title>dependencies</title>
<polygon fill="#ffffff" stroke="transparent" points="-4,4 -4,-280 816,-280 816,4 -4,4"/>
<text text-anchor="start" x="385.0091" y="-42.4" font-family="sans-serif" font-weight="bold" font-size="14.00" fill="#000000">Legend</text>
<polygon fill="#ffffb3" stroke="transparent" points="172,-10 172,-30 192,-30 192,-10 172,-10"/>
<text text-anchor="start" x="195.629" y="-15.4" font-family="sans-serif" font-size="14.00" fill="#000000"> &#160;Declarations</text>
<polygon fill="#8dd3c7" stroke="transparent" points="285,-10 285,-30 305,-30 305,-10 285,-10"/>
<text text-anchor="start" x="308.7251" y="-15.4" font-family="sans-serif" font-size="14.00" fill="#000000"> &#160;Module</text>
<polygon fill="#80b1d3" stroke="transparent" points="371,-10 371,-30 391,-30 391,-10 371,-10"/>
<text text-anchor="start" x="394.7812" y="-15.4" font-family="sans-serif" font-size="14.00" fill="#000000"> &#160;Bootstrap</text>
<polygon fill="#fdb462" stroke="transparent" points="468,-10 468,-30 488,-30 488,-10 468,-10"/>
<text text-anchor="start" x="491.6732" y="-15.4" font-family="sans-serif" font-size="14.00" fill="#000000"> &#160;Providers</text>
<polygon fill="#fb8072" stroke="transparent" points="564,-10 564,-30 584,-30 584,-10 564,-10"/>
<text text-anchor="start" x="587.7258" y="-15.4" font-family="sans-serif" font-size="14.00" fill="#000000"> &#160;Exports</text>
<g id="clust1" class="cluster">
<title>cluster_NgxAgileSliderModule</title>
<polygon fill="none" stroke="#000000" stroke-dasharray="1,5" points="8,-70 8,-268 804,-268 804,-70 8,-70"/>
</g>
<g id="clust2" class="cluster">
<title>cluster_NgxAgileSliderModule_declarations</title>
<polygon fill="none" stroke="#000000" points="452,-78 452,-130 796,-130 796,-78 452,-78"/>
</g>
<g id="clust5" class="cluster">
<title>cluster_NgxAgileSliderModule_imports</title>
<polygon fill="none" stroke="#000000" points="214,-78 214,-130 444,-130 444,-78 214,-78"/>
</g>
<g id="clust6" class="cluster">
<title>cluster_NgxAgileSliderModule_exports</title>
<polygon fill="none" stroke="#000000" points="212,-208 212,-260 564,-260 564,-208 212,-208"/>
</g>
<g id="clust8" class="cluster">
<title>cluster_NgxAgileSliderModule_providers</title>
<polygon fill="none" stroke="#000000" points="16,-78 16,-130 206,-130 206,-78 16,-78"/>
</g>
<!-- SliderContainerComponent -->
<g id="node1" class="node">
<title>SliderContainerComponent</title>
<polygon fill="#ffffb3" stroke="#000000" points="787.979,-122 618.021,-122 618.021,-86 787.979,-86 787.979,-122"/>
<text text-anchor="middle" x="703" y="-99.8" font-family="Times,serif" font-size="14.00" fill="#000000">SliderContainerComponent</text>
</g>
<!-- NgxAgileSliderModule -->
<g id="node3" class="node">
<title>NgxAgileSliderModule</title>
<polygon fill="#8dd3c7" stroke="#000000" points="454.1979,-187 451.1979,-191 430.1979,-191 427.1979,-187 305.8021,-187 305.8021,-151 454.1979,-151 454.1979,-187"/>
<text text-anchor="middle" x="380" y="-164.8" font-family="Times,serif" font-size="14.00" fill="#000000">NgxAgileSliderModule</text>
</g>
<!-- SliderContainerComponent&#45;&gt;NgxAgileSliderModule -->
<g id="edge1" class="edge">
<title>SliderContainerComponent&#45;&gt;NgxAgileSliderModule</title>
<path fill="none" stroke="#000000" d="M703,-122.1061C703,-141.3391 703,-169 703,-169 703,-169 464.1027,-169 464.1027,-169"/>
<polygon fill="#000000" stroke="#000000" points="464.1028,-165.5001 454.1027,-169 464.1027,-172.5001 464.1028,-165.5001"/>
</g>
<!-- SliderItemComponent -->
<g id="node2" class="node">
<title>SliderItemComponent</title>
<polygon fill="#ffffb3" stroke="#000000" points="600.4285,-122 459.5715,-122 459.5715,-86 600.4285,-86 600.4285,-122"/>
<text text-anchor="middle" x="530" y="-99.8" font-family="Times,serif" font-size="14.00" fill="#000000">SliderItemComponent</text>
</g>
<!-- SliderItemComponent&#45;&gt;NgxAgileSliderModule -->
<g id="edge2" class="edge">
<title>SliderItemComponent&#45;&gt;NgxAgileSliderModule</title>
<path fill="none" stroke="#000000" d="M459.7781,-104C450.966,-104 444.9664,-104 444.9664,-104 444.9664,-104 444.9664,-140.8939 444.9664,-140.8939"/>
<polygon fill="#000000" stroke="#000000" points="441.4664,-140.8938 444.9664,-150.8939 448.4664,-140.8939 441.4664,-140.8938"/>
</g>
<!-- SliderContainerComponent  -->
<g id="node6" class="node">
<title>SliderContainerComponent </title>
<polygon fill="#fb8072" stroke="#000000" points="555.9797,-252 382.0203,-252 382.0203,-216 555.9797,-216 555.9797,-252"/>
<text text-anchor="middle" x="469" y="-229.8" font-family="Times,serif" font-size="14.00" fill="#000000">SliderContainerComponent </text>
</g>
<!-- NgxAgileSliderModule&#45;&gt;SliderContainerComponent  -->
<g id="edge5" class="edge">
<title>NgxAgileSliderModule&#45;&gt;SliderContainerComponent </title>
<path fill="none" stroke="#000000" stroke-dasharray="5,2" d="M418.1797,-187.1061C418.1797,-187.1061 418.1797,-205.991 418.1797,-205.991"/>
<polygon fill="#000000" stroke="#000000" points="414.6798,-205.9909 418.1797,-215.991 421.6798,-205.991 414.6798,-205.9909"/>
</g>
<!-- SliderItemComponent  -->
<g id="node7" class="node">
<title>SliderItemComponent </title>
<polygon fill="#fb8072" stroke="#000000" points="363.9278,-252 220.0722,-252 220.0722,-216 363.9278,-216 363.9278,-252"/>
<text text-anchor="middle" x="292" y="-229.8" font-family="Times,serif" font-size="14.00" fill="#000000">SliderItemComponent </text>
</g>
<!-- NgxAgileSliderModule&#45;&gt;SliderItemComponent  -->
<g id="edge6" class="edge">
<title>NgxAgileSliderModule&#45;&gt;SliderItemComponent </title>
<path fill="none" stroke="#000000" stroke-dasharray="5,2" d="M334.9325,-187.1061C334.9325,-187.1061 334.9325,-205.991 334.9325,-205.991"/>
<polygon fill="#000000" stroke="#000000" points="331.4326,-205.9909 334.9325,-215.991 338.4326,-205.991 331.4326,-205.9909"/>
</g>
<!-- CommonModule -->
<g id="node4" class="node">
<title>CommonModule</title>
<polygon fill="#8dd3c7" stroke="#000000" points="435.6681,-122 432.6681,-126 411.6681,-126 408.6681,-122 324.3319,-122 324.3319,-86 435.6681,-86 435.6681,-122"/>
<text text-anchor="middle" x="380" y="-99.8" font-family="Times,serif" font-size="14.00" fill="#000000">CommonModule</text>
</g>
<!-- CommonModule&#45;&gt;NgxAgileSliderModule -->
<g id="edge3" class="edge">
<title>CommonModule&#45;&gt;NgxAgileSliderModule</title>
<path fill="none" stroke="#000000" d="M380,-122.1061C380,-122.1061 380,-140.991 380,-140.991"/>
<polygon fill="#000000" stroke="#000000" points="376.5001,-140.9909 380,-150.991 383.5001,-140.991 376.5001,-140.9909"/>
</g>
<!-- HttpModule -->
<g id="node5" class="node">
<title>HttpModule</title>
<polygon fill="#8dd3c7" stroke="#000000" points="306.4387,-122 303.4387,-126 282.4387,-126 279.4387,-122 221.5613,-122 221.5613,-86 306.4387,-86 306.4387,-122"/>
<text text-anchor="middle" x="264" y="-99.8" font-family="Times,serif" font-size="14.00" fill="#000000">HttpModule</text>
</g>
<!-- HttpModule&#45;&gt;NgxAgileSliderModule -->
<g id="edge4" class="edge">
<title>HttpModule&#45;&gt;NgxAgileSliderModule</title>
<path fill="none" stroke="#000000" d="M306.2754,-104C311.5805,-104 315.1925,-104 315.1925,-104 315.1925,-104 315.1925,-140.8939 315.1925,-140.8939"/>
<polygon fill="#000000" stroke="#000000" points="311.6926,-140.8938 315.1925,-150.8939 318.6926,-140.8939 311.6926,-140.8938"/>
</g>
<!-- LazyLoaderService -->
<g id="node8" class="node">
<title>LazyLoaderService</title>
<ellipse fill="#fdb462" stroke="#000000" cx="111" cy="-104" rx="86.7759" ry="18"/>
<text text-anchor="middle" x="111" y="-99.8" font-family="Times,serif" font-size="14.00" fill="#000000">LazyLoaderService</text>
</g>
<!-- LazyLoaderService&#45;&gt;NgxAgileSliderModule -->
<g id="edge7" class="edge">
<title>LazyLoaderService&#45;&gt;NgxAgileSliderModule</title>
<path fill="none" stroke="#000000" d="M111,-122.1061C111,-141.3391 111,-169 111,-169 111,-169 295.7825,-169 295.7825,-169"/>
<polygon fill="#000000" stroke="#000000" points="295.7825,-172.5001 305.7825,-169 295.7825,-165.5001 295.7825,-172.5001"/>
</g>
</g>
</svg>
