<?xml version="1.0" encoding="UTF-8" standalone="no"?>
<!DOCTYPE svg PUBLIC "-//W3C//DTD SVG 1.1//EN"
 "http://www.w3.org/Graphics/SVG/1.1/DTD/svg11.dtd">
<!-- Generated by graphviz version 2.40.1 (20161225.0304)
 -->
<!-- Title: dependencies Pages: 1 -->
<svg width="504pt" height="284pt"
 viewBox="0.00 0.00 504.00 284.00" xmlns="http://www.w3.org/2000/svg" xmlns:xlink="http://www.w3.org/1999/xlink">
<g id="graph0" class="graph" transform="scale(1 1) rotate(0) translate(4 280)">
<title>dependencies</title>
<polygon fill="#ffffff" stroke="transparent" points="-4,4 -4,-280 500,-280 500,4 -4,4"/>
<text text-anchor="start" x="227.0091" y="-42.4" font-family="sans-serif" font-weight="bold" font-size="14.00" fill="#000000">Legend</text>
<polygon fill="#ffffb3" stroke="transparent" points="14,-10 14,-30 34,-30 34,-10 14,-10"/>
<text text-anchor="start" x="37.629" y="-15.4" font-family="sans-serif" font-size="14.00" fill="#000000"> &#160;Declarations</text>
<polygon fill="#8dd3c7" stroke="transparent" points="127,-10 127,-30 147,-30 147,-10 127,-10"/>
<text text-anchor="start" x="150.7251" y="-15.4" font-family="sans-serif" font-size="14.00" fill="#000000"> &#160;Module</text>
<polygon fill="#80b1d3" stroke="transparent" points="213,-10 213,-30 233,-30 233,-10 213,-10"/>
<text text-anchor="start" x="236.7812" y="-15.4" font-family="sans-serif" font-size="14.00" fill="#000000"> &#160;Bootstrap</text>
<polygon fill="#fdb462" stroke="transparent" points="310,-10 310,-30 330,-30 330,-10 310,-10"/>
<text text-anchor="start" x="333.6732" y="-15.4" font-family="sans-serif" font-size="14.00" fill="#000000"> &#160;Providers</text>
<polygon fill="#fb8072" stroke="transparent" points="406,-10 406,-30 426,-30 426,-10 406,-10"/>
<text text-anchor="start" x="429.7258" y="-15.4" font-family="sans-serif" font-size="14.00" fill="#000000"> &#160;Exports</text>
<g id="clust1" class="cluster">
<title>cluster_AppModule</title>
<polygon fill="none" stroke="#000000" stroke-dasharray="1,5" points="30.5,-70 30.5,-268 465.5,-268 465.5,-70 30.5,-70"/>
</g>
<g id="clust2" class="cluster">
<title>cluster_AppModule_declarations</title>
<polygon fill="none" stroke="#000000" points="335.5,-78 335.5,-130 457.5,-130 457.5,-78 335.5,-78"/>
</g>
<g id="clust4" class="cluster">
<title>cluster_AppModule_imports</title>
<polygon fill="none" stroke="#000000" points="38.5,-78 38.5,-130 327.5,-130 327.5,-78 38.5,-78"/>
</g>
<g id="clust6" class="cluster">
<title>cluster_AppModule_bootstrap</title>
<polygon fill="none" stroke="#000000" points="204.5,-208 204.5,-260 328.5,-260 328.5,-208 204.5,-208"/>
</g>
<!-- AppComponent -->
<g id="node1" class="node">
<title>AppComponent</title>
<polygon fill="#ffffb3" stroke="#000000" points="449.4399,-122 343.5601,-122 343.5601,-86 449.4399,-86 449.4399,-122"/>
<text text-anchor="middle" x="396.5" y="-99.8" font-family="Times,serif" font-size="14.00" fill="#000000">AppComponent</text>
</g>
<!-- AppModule -->
<g id="node2" class="node">
<title>AppModule</title>
<polygon fill="#8dd3c7" stroke="#000000" points="308.1571,-187 305.1571,-191 284.1571,-191 281.1571,-187 224.8429,-187 224.8429,-151 308.1571,-151 308.1571,-187"/>
<text text-anchor="middle" x="266.5" y="-164.8" font-family="Times,serif" font-size="14.00" fill="#000000">AppModule</text>
</g>
<!-- AppComponent&#45;&gt;AppModule -->
<g id="edge1" class="edge">
<title>AppComponent&#45;&gt;AppModule</title>
<path fill="none" stroke="#000000" d="M396.5,-122.1061C396.5,-141.3391 396.5,-169 396.5,-169 396.5,-169 318.3484,-169 318.3484,-169"/>
<polygon fill="#000000" stroke="#000000" points="318.3484,-165.5001 308.3484,-169 318.3484,-172.5001 318.3484,-165.5001"/>
</g>
<!-- AppComponent  -->
<g id="node5" class="node">
<title>AppComponent </title>
<polygon fill="#80b1d3" stroke="#000000" points="320.939,-252 212.061,-252 212.061,-216 320.939,-216 320.939,-252"/>
<text text-anchor="middle" x="266.5" y="-229.8" font-family="Times,serif" font-size="14.00" fill="#000000">AppComponent </text>
</g>
<!-- AppModule&#45;&gt;AppComponent  -->
<g id="edge4" class="edge">
<title>AppModule&#45;&gt;AppComponent </title>
<path fill="none" stroke="#000000" stroke-dasharray="1,5" d="M266.5,-187.1061C266.5,-187.1061 266.5,-205.991 266.5,-205.991"/>
<polygon fill="#000000" stroke="#000000" points="263.0001,-205.9909 266.5,-215.991 270.0001,-205.991 263.0001,-205.9909"/>
</g>
<!-- BrowserModule -->
<g id="node3" class="node">
<title>BrowserModule</title>
<polygon fill="#8dd3c7" stroke="#000000" points="319.9734,-122 316.9734,-126 295.9734,-126 292.9734,-122 213.0266,-122 213.0266,-86 319.9734,-86 319.9734,-122"/>
<text text-anchor="middle" x="266.5" y="-99.8" font-family="Times,serif" font-size="14.00" fill="#000000">BrowserModule</text>
</g>
<!-- BrowserModule&#45;&gt;AppModule -->
<g id="edge2" class="edge">
<title>BrowserModule&#45;&gt;AppModule</title>
<path fill="none" stroke="#000000" d="M266.5,-122.1061C266.5,-122.1061 266.5,-140.991 266.5,-140.991"/>
<polygon fill="#000000" stroke="#000000" points="263.0001,-140.9909 266.5,-150.991 270.0001,-140.991 263.0001,-140.9909"/>
</g>
<!-- NgxAgileSliderModule -->
<g id="node4" class="node">
<title>NgxAgileSliderModule</title>
<polygon fill="#8dd3c7" stroke="#000000" points="194.6979,-122 191.6979,-126 170.6979,-126 167.6979,-122 46.3021,-122 46.3021,-86 194.6979,-86 194.6979,-122"/>
<text text-anchor="middle" x="120.5" y="-99.8" font-family="Times,serif" font-size="14.00" fill="#000000">NgxAgileSliderModule</text>
</g>
<!-- NgxAgileSliderModule&#45;&gt;AppModule -->
<g id="edge3" class="edge">
<title>NgxAgileSliderModule&#45;&gt;AppModule</title>
<path fill="none" stroke="#000000" d="M120.5,-122.1061C120.5,-141.3391 120.5,-169 120.5,-169 120.5,-169 214.6623,-169 214.6623,-169"/>
<polygon fill="#000000" stroke="#000000" points="214.6623,-172.5001 224.6623,-169 214.6622,-165.5001 214.6623,-172.5001"/>
</g>
</g>
</svg>
